<mxfile host="app.diagrams.net" modified="2024-04-22T15:13:08.772Z" agent="Mozilla/5.0 (Windows NT 10.0; Win64; x64) AppleWebKit/537.36 (KHTML, like Gecko) Chrome/123.0.0.0 Safari/537.36" version="24.2.7" etag="vxMADKUGQH9qxZ8a3zWv" type="github">
  <diagram name="Page-1" id="YWm67wyS_TZetQM_e3lZ">
    <mxGraphModel>
      <root>
        <mxCell id="0" />
        <mxCell id="1" parent="0" />
      </root>
    </mxGraphModel>
  </diagram>
</mxfile>
